# xmcd CD database file
#
# Track frame offsets:
#	150
#	41741
#	59213
#	95046
#	119686
#	146189
#	157955
#	180821
#
# Disc length: 2598 seconds
#
# Revision: 0
# Processed by: cddbd v1.5.2PL0 Copyright (c) Steve Scherf et al.
# Submitted via: CDex 1.51
#
DISCID=750a2408
DTITLE=Walter Gaeta - Oktogon
DYEAR=2003
DGENRE=Jazz
TTITLE0=Black Inside
TTITLE1=Oktogon
TTITLE2=Distinti silenzi finiti
TTITLE3=Jacopo's dream
TTITLE4=Lo que vendra
TTITLE5=Space
TTITLE6=Hello Sun!
TTITLE7=Ninna Nanna Clico clico
EXTD=YEAR: 2003
EXTT0=
EXTT1=
EXTT2=
EXTT3=
EXTT4=
EXTT5=
EXTT6=
EXTT7=
PLAYORDER=
